<?xml version="1.0" encoding="utf-8"?>
<!-- Generator: Adobe Illustrator 28.2.0, SVG Export Plug-In . SVG Version: 6.00 Build 0)  -->
<svg version="1.1" id="logo-84" xmlns="http://www.w3.org/2000/svg" xmlns:xlink="http://www.w3.org/1999/xlink" x="0px" y="0px"
	 viewBox="0 0 40 28" style="enable-background:new 0 0 40 28;" xml:space="preserve">
<style type="text/css">
	.st0{fill-rule:evenodd;clip-rule:evenodd;fill:#FFFFFF;}
</style>
<path class="st0" d="M10,4.1L0,14c2,2,4.3,3.6,6.8,4.9c0.7,1.8,1.8,3.5,3.2,5c5.5,5.5,14.5,5.5,20,0c1.5-1.5,2.5-3.1,3.2-5
	c2.5-1.3,4.8-3,6.8-4.9L30,4.1c0,0,0,0,0,0C24.5-1.4,15.5-1.4,10,4.1C10,4.1,10,4.1,10,4.1z M29,20.7c-2.9,1-6,1.5-9,1.5
	s-6.1-0.5-9-1.5c0.3,0.4,0.7,0.8,1,1.2c4.4,4.4,11.6,4.4,16,0C28.4,21.5,28.7,21.1,29,20.7z M12.2,5.9c0.8,0.5,1.5,0.9,2.4,1.3
	c1.7,0.7,3.6,1.1,5.4,1.1s3.7-0.4,5.4-1.1c0.8-0.3,1.6-0.8,2.4-1.3C23.4,1.8,16.6,1.8,12.2,5.9z"/>
</svg>
