<?xml version="1.0" encoding="utf-8"?>
<!-- Generator: Adobe Illustrator 28.2.0, SVG Export Plug-In . SVG Version: 6.00 Build 0)  -->
<svg version="1.1" id="logo-22" xmlns="http://www.w3.org/2000/svg" xmlns:xlink="http://www.w3.org/1999/xlink" x="0px" y="0px"
	 viewBox="0 0 103 52" style="enable-background:new 0 0 103 52;" xml:space="preserve">
<style type="text/css">
	.st0{fill:#FFFFFF;}
	.st1{fill-rule:evenodd;clip-rule:evenodd;fill:#FFFFFF;}
</style>
<path class="st0" d="M8,11.2c-0.6-1.6-0.4-3.5,0.2-5C8.9,4.5,9.9,2.9,11.5,2c0.1,1.7-0.4,3.4-1,5C10,8.4,9.4,9.9,8.3,11
	c-0.2,0.9-0.3,1.7-0.4,2.6c0.3-0.9,0.9-1.7,1.6-2.4c0.9-0.9,2.3-1.5,3.5-1.1c-0.4,1.4-1.2,2.7-2.2,3.7c-0.8,0.7-1.8,1.7-3.1,1.7
	c-0.1,1.3,0,2.5,0.1,3.8c0.2-0.9,0.5-1.8,1.1-2.4c0.7-0.9,1.8-1.9,3.2-1.8c-0.1,1.4-0.6,2.9-1.4,4c-0.6,0.9-1.5,2-2.6,2.3
	c0.2,1.2,0.5,2.4,0.8,3.6c0-0.9,0.2-1.8,0.6-2.5c0.6-1,1.4-2.2,2.8-2.3c0.2,1.4-0.1,2.9-0.6,4.1c-0.4,1-1,2.2-2.1,2.7
	c0.5,1.3,1,2.5,1.6,3.7c-0.2-1-0.2-2.1,0-3.1c0.4-1.3,1.2-2.7,2.6-3.1c0.5,1.5,0.4,3.1,0.1,4.6c-0.2,1.2-0.7,2.7-1.8,3.5
	c0.7,1.1,1.4,2.2,2.3,3.2c-0.4-1-0.7-2.1-0.5-3.1c0.2-1.5,0.6-3,2.1-3.8c0.8,1.5,1,3.1,1.1,4.7c0.1,1.3-0.1,2.9-1,4
	c1,1,2.1,2,3.2,2.9c-0.7-0.9-1.3-2.1-1.4-3.2c-0.2-1.6-0.1-3.3,1.3-4.4c1.2,1.2,1.9,3,2.2,4.6c0.3,1.4,0.6,3-0.1,4.4
	c1.5,1,3,1.8,4.7,2.5c-1.2-0.8-2.1-2-2.6-3.1c-0.6-1.5-1-3.4,0.2-4.9c1.5,1,2.7,2.7,3.6,4.2c0.8,1.3,1.6,3.1,1.2,4.7
	c0.9,0.3,1.8,0.6,2.8,0.8l-0.1,0.2c-1-0.2-1.9-0.5-2.8-0.8c-0.6,1.9-2.7,2.5-4.4,2.8c-2.4,0.4-5.3-0.4-7.4-1.9
	c1.1-1.5,3.3-1.7,5-1.8l0,0c1.8-0.1,3.8,0,5.7,0.5c-2.1-0.8-4.1-1.8-6-3l0,0c-1,1.6-3,1.7-4.6,1.6c-2.2-0.1-4.6-1.5-6.1-3.3
	c1.4-1.2,3.4-0.9,4.9-0.6l0,0c1.7,0.3,3.6,0.9,5.2,1.9c-0.2-0.1-0.3-0.2-0.4-0.4c-1.5-1.1-3-2.3-4.3-3.7c0,0,0,0,0,0
	c-1.3,1.3-3.1,0.9-4.5,0.5c-1.9-0.6-3.9-2.2-4.8-4.1c1.5-0.8,3.2-0.1,4.6,0.4c1.5,0.6,3.1,1.5,4.3,2.7c-0.1-0.2-0.2-0.3-0.4-0.5
	c-1.1-1.3-2.2-2.7-3.1-4.1l0,0c-1.4,0.9-3,0.3-4.3-0.4C6,31.4,4.6,29.4,4,27.5C5.5,27,7,28,8.2,28.7c1.3,0.8,2.6,2,3.5,3.4
	c-0.1-0.1-0.1-0.3-0.2-0.4c-0.9-1.5-1.6-3.1-2.2-4.7l0,0l0,0c-1.3,0.5-2.7-0.3-3.7-1.1c-1.3-1.2-2.2-3-2.4-4.7
	C4.5,21,5.8,22.1,6.7,23c1,1,1.9,2.2,2.4,3.6c0-0.1-0.1-0.3-0.1-0.4c-0.5-1.5-0.9-3.1-1.1-4.7l0,0l0,0c-1.4,0.2-2.6-0.8-3.4-1.8
	c-1.1-1.4-1.6-3.4-1.5-5.1c1.4,0.1,2.4,1.4,3.1,2.4c0.8,1.2,1.4,2.6,1.7,4c0-0.1,0-0.2,0-0.3c-0.2-1.6-0.3-3.3-0.2-5l0,0
	c-1.4,0-2.4-1.3-2.9-2.5c-0.8-1.6-0.9-3.7-0.4-5.4c1.3,0.4,2.1,1.9,2.5,3.1c0.5,1.3,0.9,2.8,0.9,4.3C7.7,13.7,7.8,12.4,8,11.2z"/>
<path class="st0" d="M35.4,8.2V14c0,2.6-2.3,3.8-5.9,3.8c-3.3,0-5.7-1.2-5.7-4.1V8.2h3.3v5.5c0,1,0.9,1.7,2.5,1.7
	c1.6,0,2.5-0.7,2.5-1.7V8.2H35.4z"/>
<path class="st0" d="M46.3,15.1v2.5h-9.1V8.2h3.3v7H46.3z"/>
<path class="st0" d="M56.1,10.5V8.2H44.7v2.4h4v7.1h3.3v-7.1H56.1z"/>
<path class="st1" d="M67.8,9.1c0.4,0.4,0.6,1.1,0.6,1.9c0,0.7-0.2,1.4-0.5,1.8c-0.3,0.5-0.9,0.8-1.5,0.9l2.9,3.9h-3.6l-2.4-3.4h-2.9
	v3.4h-3.2V8.2h7.6C66.2,8.2,67.2,8.5,67.8,9.1z M65.1,11.9c0.1-0.1,0.1-0.3,0.1-0.5c0-0.2,0-0.4-0.1-0.5c-0.2-0.3-0.5-0.4-1-0.4
	h-3.7v1.7h3.8C64.7,12.2,65,12.1,65.1,11.9z"/>
<path class="st1" d="M73.7,15.9h5.1l0.8,1.8h3.5l-4.8-9.5h-3.9l-5.1,9.5h3.4L73.7,15.9z M77.8,13.8h-3l1.2-2.3l0.4-0.9l0.3,0.9
	L77.8,13.8z"/>
<path class="st1" d="M67.4,19.5c-2,0-3.1,1-3.1,2.4c0,1.6,1.1,2.4,3.1,2.4c2.2,0,3.1-0.9,3.1-2.4C70.5,20.4,69.5,19.5,67.4,19.5z
	 M67.4,23.1c-1.2,0-1.5-0.5-1.5-1.2c0-0.7,0.4-1.2,1.5-1.2c1.2,0,1.5,0.5,1.5,1.2C68.9,22.6,68.6,23.1,67.4,23.1z"/>
<path class="st0" d="M61.3,24.2v-2.7h-3.1v1h1.6c0,0.1-0.1,0.2-0.1,0.3c-0.2,0.2-0.6,0.4-1.2,0.4c-0.6,0-1-0.2-1.2-0.4
	c-0.1-0.2-0.2-0.4-0.2-0.8c0-0.4,0.1-0.7,0.2-0.9c0.2-0.3,0.6-0.4,1.2-0.4c0.5,0,0.9,0.1,1,0.3c0.1,0.1,0.2,0.2,0.2,0.3h1.5
	c0-0.1-0.1-0.4-0.1-0.6c-0.4-0.7-1.2-1.2-2.7-1.2c-1.3,0-2.1,0.4-2.6,1c-0.3,0.4-0.4,0.9-0.4,1.4c0,0.6,0.2,1.1,0.4,1.5
	c0.5,0.6,1.3,0.9,2.3,0.9c0.9,0,1.5-0.2,1.8-0.5l0,0.4H61.3z"/>
<path class="st0" d="M45.3,21.4c1.2,0.1,1.7,0.6,1.7,1.4c0,1-1,1.5-2.8,1.5c-1.7,0-2.5-0.5-2.8-1.1c-0.1-0.2-0.1-0.3-0.1-0.5h1.7
	c0,0.1,0.1,0.2,0.1,0.2c0.1,0.2,0.5,0.3,1.2,0.3c0.9,0,1.1-0.1,1.1-0.4c0-0.2-0.2-0.3-1-0.4c-0.3,0-0.8-0.1-1-0.1
	c-1.5-0.1-2-0.6-2-1.4c0-0.8,1-1.5,2.8-1.5c1.6,0,2.3,0.5,2.6,1.1c0.1,0.2,0.2,0.4,0.2,0.5h-1.7c0-0.1,0-0.1-0.1-0.2
	c-0.1-0.2-0.5-0.3-1-0.3c-0.8,0-1,0.1-1,0.3c0,0.2,0.3,0.3,1.2,0.4C44.5,21.3,45.1,21.4,45.3,21.4z"/>
<path class="st1" d="M28.4,20c0.3,0.2,0.5,0.7,0.5,1.3c0,0.5-0.1,0.9-0.4,1.1c-0.3,0.4-0.8,0.5-1.5,0.5c-0.2,0-2,0-2,0v1.3h-1.6
	v-4.6H27C27.6,19.6,28.1,19.7,28.4,20z M27.2,21.6c0-0.1,0.1-0.2,0.1-0.3c0-0.2,0-0.3-0.1-0.4c-0.1-0.1-0.3-0.2-0.6-0.2h-1.7v1.1
	h1.6C26.9,21.8,27.1,21.8,27.2,21.6z"/>
<path class="st1" d="M34.6,20.1c0.2,0.2,0.3,0.5,0.3,0.9c0,0.4-0.1,0.7-0.2,0.9c-0.2,0.2-0.4,0.4-0.7,0.5l1.4,1.9h-1.8l-1.1-1.6
	h-1.4v1.6h-1.6v-4.6h3.7C33.9,19.6,34.4,19.8,34.6,20.1z M33.4,21.4c0-0.1,0.1-0.2,0.1-0.2c0-0.1,0-0.2-0.1-0.2
	c-0.1-0.2-0.2-0.2-0.5-0.2h-1.8v0.8h1.8C33.2,21.5,33.3,21.5,33.4,21.4z"/>
<path class="st0" d="M40.8,24.2v-1.1h-3.3v-0.6h3.2v-1.1h-3.2v-0.6h3.3v-1.2h-4.8v4.6H40.8z"/>
<path class="st0" d="M52.7,20.7v-1.2h-5.5v1.2h1.9v3.5h1.6v-3.5H52.7z"/>
<path class="st0" d="M54.8,19.6v4.6h-1.6v-4.6H54.8z"/>
<path class="st0" d="M63.7,19.6v4.6h-1.6v-4.6H63.7z"/>
<path class="st0" d="M76.8,19.6v2.8c0,1.2-1.1,1.8-2.8,1.8c-1.6,0-2.7-0.6-2.7-2v-2.7h1.6v2.7c0,0.5,0.4,0.8,1.2,0.8
	c0.8,0,1.2-0.3,1.2-0.8v-2.7H76.8z"/>
<path class="st0" d="M83.1,22.8c0-0.8-0.5-1.2-1.7-1.4c-0.2,0-0.8-0.1-1.1-0.1c-0.9-0.1-1.2-0.2-1.2-0.4c0-0.2,0.2-0.3,1-0.3
	c0.6,0,0.9,0.1,1,0.3c0.1,0.1,0.1,0.1,0.1,0.2H83c0-0.1-0.1-0.3-0.2-0.5c-0.3-0.6-1-1.1-2.6-1.1c-1.8,0-2.8,0.6-2.8,1.5
	c0,0.8,0.6,1.3,2,1.4l0.1,0l0.2,0l0.8,0.1c0.8,0.1,1,0.1,1,0.4c0,0.2-0.2,0.4-1.1,0.4c-0.7,0-1.1-0.1-1.2-0.3
	c-0.1-0.1-0.1-0.2-0.1-0.2h-1.7c0,0.1,0,0.3,0.1,0.5c0.3,0.6,1,1.1,2.8,1.1C82.2,24.3,83.1,23.7,83.1,22.8z"/>
<path class="st1" d="M42,26c-1.3,0-2,0.6-2,1.5c0,1,0.7,1.6,2,1.6c1.4,0,2-0.6,2-1.6C44,26.5,43.3,26,42,26z M42,28.3
	c-0.8,0-1-0.3-1-0.8c0-0.5,0.2-0.8,1-0.8c0.8,0,1,0.3,1,0.8C42.9,28,42.7,28.3,42,28.3z"/>
<path class="st0" d="M34.6,28.1c0-0.5-0.3-0.8-1.1-0.9c-0.1,0-0.5-0.1-0.7-0.1c-0.6-0.1-0.8-0.1-0.8-0.3c0-0.1,0.1-0.2,0.7-0.2
	c0.4,0,0.6,0.1,0.7,0.2c0,0.1,0.1,0.1,0.1,0.1h1.1c0-0.1,0-0.2-0.1-0.3c-0.2-0.4-0.7-0.7-1.7-0.7c-1.2,0-1.8,0.4-1.8,0.9
	c0,0.5,0.4,0.8,1.3,0.9c0.1,0,0.5,0,0.7,0.1c0.5,0.1,0.6,0.1,0.6,0.2c0,0.1-0.1,0.2-0.7,0.2c-0.4,0-0.7-0.1-0.8-0.2
	c0,0-0.1-0.1-0.1-0.2h-1.1c0,0.1,0,0.2,0.1,0.3c0.2,0.4,0.7,0.7,1.8,0.7C34,29.1,34.6,28.7,34.6,28.1z"/>
<path class="st1" d="M27,28.2c0,0.2-0.1,0.4-0.2,0.5c-0.2,0.2-0.5,0.3-0.9,0.3h-2.7v-3h2.6c0.4,0,0.7,0.1,0.8,0.2
	c0.1,0.1,0.2,0.3,0.2,0.5c0,0.2,0,0.4-0.1,0.5c-0.1,0.1-0.2,0.2-0.4,0.2c0.2,0,0.4,0.1,0.5,0.3C26.9,27.8,27,28,27,28.2z M25.7,27.1
	c0,0,0.1-0.1,0.1-0.2c0-0.1,0-0.1-0.1-0.2c-0.1,0-0.2-0.1-0.3-0.1h-1.2v0.5h1.2C25.5,27.2,25.6,27.2,25.7,27.1z M25.5,28.4
	c0.2,0,0.3,0,0.3-0.1c0,0,0.1-0.1,0.1-0.2c0-0.1,0-0.1-0.1-0.2c-0.1,0-0.2-0.1-0.3-0.1h-1.3v0.5H25.5z"/>
<path class="st0" d="M30.6,28.3V29h-3.2v-3h3.1v0.7h-2.1v0.4h2.1v0.7h-2.1v0.4H30.6z"/>
<path class="st0" d="M38.3,26v0.8h-1.3V29h-1v-2.2h-1.3V26H38.3z"/>
<path class="st0" d="M47.5,26v0.8h-2v0.4h1.9V28h-1.9V29h-1v-3H47.5z"/>
<path class="st0" d="M52.7,26.8V26h-3.6v0.8h1.3V29h1v-2.2H52.7z"/>
<path class="st0" d="M56.6,26v3h-1V28H54V29h-1v-3h1v1.1h1.5V26H56.6z"/>
<path class="st0" d="M60.3,29v-0.7h-2.2v-0.4h2.1v-0.7h-2.1v-0.4h2.1V26h-3.1v3H60.3z"/>
<path class="st0" d="M66.7,26h1l-1.1,3h-1.1c0,0-0.6-1.8-0.6-1.8c0,0-0.6,1.8-0.6,1.8h-1.1L62,26h1.1c0,0,0.7,1.9,0.7,1.9
	c0,0,0.6-1.9,0.6-1.9h1.1c0,0,0.6,1.9,0.6,1.9C66,27.9,66.7,26,66.7,26z"/>
<path class="st1" d="M69.6,26c-1.3,0-2,0.6-2,1.5c0,1,0.7,1.6,2,1.6c1.4,0,2-0.6,2-1.6C71.7,26.5,71,26,69.6,26z M69.6,28.3
	c-0.8,0-1-0.3-1-0.8c0-0.5,0.2-0.8,1-0.8c0.8,0,1,0.3,1,0.8C70.6,28,70.4,28.3,69.6,28.3z"/>
<path class="st1" d="M75.4,26.3c0.1,0.1,0.2,0.3,0.2,0.6c0,0.2-0.1,0.4-0.2,0.6c-0.1,0.1-0.3,0.3-0.5,0.3l0.9,1.2h-1.1L74,28h-0.9
	V29h-1v-3h2.4C74.9,26,75.3,26.2,75.4,26.3z M74.6,27.2c0,0,0-0.1,0-0.2c0-0.1,0-0.1,0-0.2c-0.1-0.1-0.2-0.1-0.3-0.1h-1.2v0.5h1.2
	C74.5,27.3,74.6,27.3,74.6,27.2z"/>
<path class="st0" d="M79.1,29v-0.8h-1.8V26h-1v3H79.1z"/>
<path class="st1" d="M83.2,27.5c0,0.5,0,0.7-0.2,1c-0.2,0.4-0.6,0.6-1.3,0.6h-2.1v-3h2.1c0.7,0,1.1,0.2,1.4,0.6
	C83.1,26.8,83.2,27.1,83.2,27.5z M81.4,28.3c0.3,0,0.5-0.1,0.6-0.2c0.1-0.1,0.1-0.3,0.1-0.6c0-0.2,0-0.4-0.1-0.5
	c-0.1-0.2-0.3-0.2-0.6-0.2h-0.9v1.5H81.4z"/>
<path class="st0" d="M42.1,43.6h-1.6c0,0-1,3-1,3.1c0-0.1-1-3.1-1-3.1h-1.7c0,0-1,3-1,3.1c0-0.1-1-3.1-1-3.1h-1.8l1.8,4.8h1.8
	c0,0,1-2.9,1-2.9c0,0.1,1,2.9,1,2.9h1.8L42.1,43.6z"/>
<path class="st0" d="M44.3,48.4v-4.8h-1.7v4.8H44.3z"/>
<path class="st0" d="M50.9,43.6v4.8h-1.6l-2.4-2.7v2.7h-1.6v-4.8H47l2.3,2.6v-2.6H50.9z"/>
<path class="st0" d="M57.4,48.4v-4.8h-1.6v2.6l-2.3-2.6h-1.7v4.8h1.6v-2.7l2.4,2.7H57.4z"/>
<path class="st0" d="M63.4,47.3v1.2h-5.1v-4.8h5v1.2H60v0.6h3.3v1.2H60v0.6H63.4z"/>
<path class="st1" d="M69.9,45.1c0-0.4-0.1-0.7-0.3-1c-0.3-0.3-0.8-0.5-1.5-0.5h-3.8v4.8h1.6v-1.7h1.5l1.2,1.7h1.8l-1.5-2
	c0.3,0,0.6-0.2,0.8-0.5C69.8,45.8,69.9,45.5,69.9,45.1z M68.3,45.3c0,0.1,0,0.2-0.1,0.3c-0.1,0.1-0.2,0.2-0.5,0.2h-1.9v-0.9h1.9
	c0.3,0,0.4,0,0.5,0.2C68.3,45.1,68.3,45.2,68.3,45.3z"/>
<path class="st0" d="M37.3,35.2l-0.7-2l-0.7,2h-2.1l1.7,1.3l-0.7,2l1.7-1.3l1.7,1.3l-0.7-2l1.7-1.3H37.3z"/>
<path class="st0" d="M44.3,33.1l0.7,2h2.2l-1.8,1.3l0.7,2l-1.8-1.3l-1.8,1.3l0.7-2l-1.8-1.3h2.2L44.3,33.1z"/>
<path class="st0" d="M52.5,35.2l-0.7-2l-0.7,2H49l1.8,1.3l-0.7,2l1.8-1.3l1.8,1.3l-0.7-2l1.8-1.3H52.5z"/>
<path class="st0" d="M59.5,33.1l0.7,2h2.2l-1.8,1.3l0.7,2l-1.8-1.3l-1.8,1.3l0.7-2l-1.8-1.3h2.2L59.5,33.1z"/>
<path class="st0" d="M67.8,35.2l-0.7-2l-0.7,2h-2.1l1.7,1.3l-0.7,2l1.7-1.3l1.7,1.3l-0.7-2l1.7-1.3H67.8z"/>
<path class="st0" d="M95.6,11.2c0.6-1.6,0.4-3.5-0.2-5c-0.6-1.6-1.7-3.3-3.3-4.1c-0.1,1.7,0.4,3.4,1,5c0.5,1.4,1.2,2.9,2.2,4
	c0.2,0.9,0.3,1.7,0.4,2.6c-0.3-0.9-0.9-1.7-1.6-2.4c-0.9-0.9-2.3-1.5-3.5-1.1c0.4,1.4,1.2,2.7,2.2,3.7c0.8,0.7,1.8,1.7,3.1,1.7
	c0.1,1.3,0,2.5-0.1,3.8c-0.2-0.9-0.5-1.8-1.1-2.4c-0.7-0.9-1.8-1.9-3.2-1.8c0.1,1.4,0.6,2.9,1.4,4c0.6,0.9,1.5,2,2.6,2.3
	c-0.2,1.2-0.5,2.4-0.8,3.6c0-0.9-0.2-1.8-0.6-2.5c-0.6-1-1.4-2.2-2.8-2.3c-0.2,1.4,0.1,2.9,0.6,4.1c0.4,1,1,2.2,2.1,2.7
	c-0.5,1.3-1,2.5-1.6,3.7c0.2-1,0.2-2.1,0-3.1c-0.4-1.3-1.2-2.7-2.6-3.1c-0.5,1.5-0.4,3.1-0.1,4.6c0.2,1.2,0.7,2.7,1.8,3.5
	c-0.7,1.1-1.4,2.2-2.3,3.2c0.4-1,0.7-2.1,0.5-3.1c-0.2-1.5-0.6-3-2.1-3.8c-0.8,1.5-1,3.1-1.1,4.7c-0.1,1.3,0.1,2.9,1,4
	c-1,1-2.1,2-3.2,2.9c0.7-0.9,1.3-2.1,1.4-3.2c0.2-1.6,0.1-3.3-1.3-4.4c-1.2,1.2-1.9,3-2.2,4.6c-0.3,1.4-0.6,3,0.1,4.4
	c-1.5,1-3,1.8-4.7,2.5c1.2-0.8,2.1-2,2.6-3.1c0.6-1.5,1-3.4-0.2-4.9c-1.5,1-2.7,2.7-3.6,4.2c-0.8,1.3-1.6,3.1-1.2,4.7
	c-0.9,0.3-1.8,0.6-2.8,0.8l0.1,0.2c1-0.2,1.9-0.5,2.8-0.8c0.6,1.9,2.7,2.5,4.4,2.8c2.4,0.4,5.3-0.4,7.4-1.9c-1.1-1.5-3.3-1.7-5-1.8
	l0,0c-1.8-0.1-3.8,0-5.7,0.5c2.1-0.8,4.1-1.8,6-3l0,0c1,1.6,3,1.7,4.6,1.6c2.2-0.1,4.6-1.5,6.1-3.3c-1.4-1.2-3.4-0.9-4.9-0.6l0,0
	c-1.7,0.3-3.6,0.9-5.2,1.9c0.2-0.1,0.3-0.2,0.4-0.4c1.5-1.1,3-2.3,4.3-3.7c0,0,0,0,0.1,0.1c1.3,1.3,3.1,0.9,4.5,0.5
	c1.9-0.5,3.9-2.2,4.8-4.1c-1.5-0.8-3.2-0.1-4.6,0.4c-1.5,0.6-3.1,1.5-4.3,2.7c0.1-0.2,0.2-0.3,0.4-0.5c1.1-1.3,2.2-2.7,3.1-4.1l0,0
	l0,0c1.4,0.9,3,0.3,4.3-0.4c1.7-0.9,3.1-2.8,3.7-4.7c-1.5-0.5-3,0.5-4.2,1.2c-1.3,0.8-2.6,2-3.5,3.4c0.1-0.1,0.1-0.3,0.2-0.4
	c0.9-1.5,1.6-3.1,2.2-4.7l0,0l0,0c1.3,0.5,2.7-0.3,3.7-1.1c1.3-1.2,2.2-3,2.4-4.7c-1.3-0.2-2.6,0.9-3.5,1.8c-1,1-1.9,2.2-2.4,3.6
	c0-0.1,0.1-0.3,0.1-0.4c0.5-1.5,0.9-3.1,1.1-4.7l0,0c1.4,0.2,2.6-0.8,3.4-1.8c1.1-1.4,1.6-3.4,1.5-5.1c-1.4,0.1-2.4,1.4-3.1,2.4
	c-0.8,1.2-1.4,2.6-1.7,4c0-0.1,0-0.2,0-0.3c0.2-1.6,0.3-3.3,0.2-5c1.4,0,2.4-1.3,2.9-2.5c0.8-1.6,0.9-3.7,0.4-5.4
	c-1.3,0.4-2.1,1.9-2.5,3.1c-0.5,1.3-0.9,2.8-0.9,4.3C96,13.7,95.9,12.5,95.6,11.2z"/>
</svg>
