<?xml version="1.0" encoding="utf-8"?>
<!-- Generator: Adobe Illustrator 28.2.0, SVG Export Plug-In . SVG Version: 6.00 Build 0)  -->
<svg version="1.1" id="logo-19" xmlns="http://www.w3.org/2000/svg" xmlns:xlink="http://www.w3.org/1999/xlink" x="0px" y="0px"
	 viewBox="0 0 80 70" style="enable-background:new 0 0 80 70;" xml:space="preserve">
<style type="text/css">
	.st0{fill:#FFFFFF;}
	.st1{fill-rule:evenodd;clip-rule:evenodd;fill:#FFFFFF;}
</style>
<path class="st0" d="M17.4,59.8H21c0,0.4-0.1,1.1-0.4,1.6C19.8,63.1,18,64,14.5,64c-2.8,0-4.6-0.7-5.6-1.9c-0.7-0.8-1-1.9-1-3.3
	c0-1.3,0.3-2.3,1-3.1c1-1.3,2.8-2,5.7-2c3.9,0,5.5,1.4,6.1,2.9c0.2,0.5,0.3,1.1,0.3,1.4h-3.5c0-0.2-0.1-0.5-0.3-0.7
	c-0.4-0.5-1.2-0.9-2.7-0.9c-1.3,0-2.3,0.3-2.8,1c-0.2,0.3-0.3,0.9-0.3,1.5c0,0.7,0.1,1.2,0.4,1.5c0.5,0.7,1.6,1,2.7,1
	c1.3,0,2.3-0.3,2.7-0.9C17.4,60.3,17.4,60.1,17.4,59.8z"/>
<path class="st0" d="M31.9,61.2v2.7h-9.5v-10h3.4v7.3H31.9z"/>
<path class="st0" d="M43.7,63.9v-2.5h-7.2v-1.3h6.9v-2.4h-6.9v-1.3h7.1v-2.5H33.2v10H43.7z"/>
<path class="st1" d="M54.2,62h-5.4l-0.9,1.8h-3.6l5.3-10h4.1l5,10h-3.7L54.2,62z M49.9,59.8h3.2l-1.2-2.4l-0.4-0.9l-0.4,0.9
	L49.9,59.8z"/>
<path class="st1" d="M71.5,57c0-0.9-0.2-1.6-0.7-2c-0.6-0.6-1.6-1-3.2-1h-7.9v10h3.4v-3.5h3.1l2.5,3.5h3.8l-3-4.1
	c0.7-0.1,1.2-0.5,1.6-1C71.3,58.4,71.5,57.7,71.5,57z M68.2,57.3c0,0.2,0,0.4-0.1,0.5c-0.1,0.3-0.5,0.4-1,0.4h-4v-1.8H67
	c0.5,0,0.9,0.1,1.1,0.4C68.2,56.9,68.2,57.1,68.2,57.3z"/>
<path class="st0" d="M52.8,8.5c0,0.2,0,0.4-0.1,0.5c-0.1,0.3-0.5,0.4-1,0.4h-4V7.5h3.9c0.5,0,0.9,0.1,1.1,0.4
	C52.8,8.1,52.8,8.3,52.8,8.5z"/>
<path class="st0" d="M62.7,11h3.2l-1.2-2.4l-0.4-0.9L64,8.6L62.7,11z"/>
<path class="st1" d="M2,8.5c0.4-4.1,3.8-7.2,8-7.2H70c4.4,0,8,3.6,8,8v50.3c0,4.4-3.6,8-8,8H10c-4.4,0-8-3.6-8-8V9.3
	C2,9,2,8.7,2,8.5z M3.7,23.7l27,9.1c0.7-0.7,1.7-1.4,2.9-1.9c0.3-0.1,0.6-0.2,0.9-0.3L23.2,19.2H32L37,30c0.7-0.1,1.3-0.2,2-0.2
	c0.2,0,0.5,0,0.7,0V19.2h7.6L42.4,30c0.8,0.1,1.5,0.3,2.2,0.5c0.9,0.3,1.7,0.6,2.4,1.1l21.2-12.4h8.2v4.3L45.4,34
	c-0.7-0.7-1.6-1.2-2.8-1.5c-1.2-0.3-2.5-0.5-3.8-0.4c-1.3,0.1-2.5,0.4-3.5,0.9c-1,0.5-1.7,1.2-2,1.9c-0.3,0.7-0.3,1.5,0.1,2.2
	c0.4,0.7,1.2,1.4,2.2,1.8c1,0.5,2.3,0.7,3.6,0.8c0.7,0,1.4,0,2.1-0.1c0.6-0.1,1.1-0.2,1.6-0.4l10.3,10.4H46l-3.6-7.9
	c-1.8,0.3-3.6,0.3-5.4,0l-3.6,7.9h-7.3l8.4-8.5c-0.8-0.3-1.5-0.6-2.1-1l-16.1,9.5H3.7v-1.6l27-9.1c-0.6-0.6-1-1.3-1.3-2
	c-0.2-0.9-0.2-1.7,0.2-2.6l-26-4.1V23.7z M76.3,48.3L39.7,35.9l36.7,5.8V48.3z M76.3,51.3H3.7v8.3c0,3.5,2.8,6.4,6.4,6.4H70
	c3.5,0,6.4-2.8,6.4-6.4V51.3z M21.5,11.2V5.1h-3.4v5.8c0,1-1,1.7-2.6,1.7c-1.7,0-2.6-0.7-2.6-1.8V5.1H9.4v5.8c0,3,2.5,4.3,5.9,4.3
	C19.1,15.2,21.5,13.9,21.5,11.2z M33,15.1v-2.7h-6.1V5.1h-3.4v10H33z M43.2,5.1v2.5H39v7.5h-3.5V7.6h-4.2V5.1H43.2z M56.1,8.2
	c0-0.9-0.2-1.6-0.7-2c-0.6-0.6-1.6-1-3.2-1h-7.9v10h3.4v-3.5h3.1l2.5,3.5H57L54,11c0.7-0.1,1.2-0.5,1.6-1
	C55.9,9.6,56.1,8.9,56.1,8.2z M67,13.3h-5.4l-0.9,1.8h-3.6l5.3-10h4.1l5,10h-3.7L67,13.3z"/>
</svg>
