<?xml version="1.0" encoding="utf-8"?>
<!-- Generator: Adobe Illustrator 28.2.0, SVG Export Plug-In . SVG Version: 6.00 Build 0)  -->
<svg version="1.1" id="logo-21" xmlns="http://www.w3.org/2000/svg" xmlns:xlink="http://www.w3.org/1999/xlink" x="0px" y="0px"
	 viewBox="0 0 74 60" style="enable-background:new 0 0 74 60;" xml:space="preserve">
<style type="text/css">
	.st0{fill:#FFFFFF;}
	.st1{fill-rule:evenodd;clip-rule:evenodd;fill:#FFFFFF;}
</style>
<path class="st0" d="M24.5,20.6c0-0.2,0-2.4,0-2.4h-1.3c0,0,0,2.2,0,2.3c0,0.4-0.4,0.7-1,0.7c-0.7,0-1-0.3-1-0.7c0-0.1,0-2.2,0-2.2
	h-1.3c0,0,0,2.1,0,2.2c0,1.2,1,1.7,2.3,1.7C23.6,22.2,24.5,21.7,24.5,20.6z"/>
<path class="st0" d="M29,22.1v-1h-2.3v-2.8h-1.3v3.9H29z"/>
<path class="st0" d="M32.9,19.2v-1h-4.6v1H30v2.9h1.3v-2.9H32.9z"/>
<path class="st0" d="M34.7,22.1v-3.9h-1.4v3.9H34.7z"/>
<path class="st0" d="M40.9,22.1v-3.9h-1.7l-1.1,2.3l-1-2.3h-1.7v3.9h1.3V20l0.9,2.1h1.1l0.9-2.1v2.1H40.9z"/>
<path class="st0" d="M43,21.4h2.1l0.3,0.7h1.4l-1.9-3.9h-1.6l-2.1,3.9h1.4L43,21.4z M44.7,20.5h-1.2l0.5-0.9l0.1-0.4l0.1,0.3
	L44.7,20.5z"/>
<path class="st0" d="M51,19.2v-1h-4.6v1H48v2.9h1.3v-2.9H51z"/>
<path class="st0" d="M55.5,22.1v-1h-2.8v-0.5h2.7v-0.9h-2.7v-0.5h2.7v-1h-4v3.9H55.5z"/>
<path class="st0" d="M29.9,24.2h-1.3c0,0-0.8,2.4-0.8,2.5c0-0.1-0.8-2.5-0.8-2.5h-1.4c0,0-0.8,2.4-0.8,2.5c0-0.1-0.8-2.5-0.8-2.5
	h-1.4l1.4,3.9h1.4c0,0,0.8-2.3,0.8-2.4c0,0.1,0.8,2.4,0.8,2.4h1.4L29.9,24.2z"/>
<path class="st0" d="M31.7,28v-3.9h-1.4V28H31.7z"/>
<path class="st0" d="M36.9,28v-3.9h-1.3v2.1l-1.9-2.1h-1.4V28h1.3v-2.1l1.9,2.1H36.9z"/>
<path class="st0" d="M42.2,28v-3.9h-1.3v2.1l-1.9-2.1h-1.4V28H39v-2.1l1.9,2.1H42.2z"/>
<path class="st0" d="M47,28v-1h-2.8v-0.5h2.7v-0.9h-2.7v-0.5H47v-1h-4V28H47z"/>
<path class="st0" d="M52.2,25.3c0-0.3-0.1-0.6-0.3-0.8c-0.2-0.2-0.6-0.4-1.2-0.4h-3.1V28H49v-1.4h1.2l1,1.4h1.5l-1.2-1.6
	c0.3,0,0.5-0.2,0.6-0.4C52.1,25.9,52.2,25.6,52.2,25.3z M50.9,25.5c0,0.1,0,0.1,0,0.2c0,0.1-0.2,0.1-0.4,0.1H49v-0.7h1.5
	c0.2,0,0.3,0,0.4,0.2C50.9,25.3,50.9,25.4,50.9,25.5z"/>
<path class="st0" d="M25.1,31.8c0-0.1,0-1.9,0-1.9h-0.5c0,0,0,1.8,0,1.9c0,0.4-0.4,0.7-1,0.7c-0.7,0-1-0.3-1-0.7c0,0,0-1.9,0-1.9
	h-0.5c0,0,0,1.8,0,1.8c0,0.8,0.6,1.1,1.5,1.1C24.5,32.9,25.1,32.5,25.1,31.8z"/>
<path class="st0" d="M28.4,32.8v-0.4h-2v-2.5h-0.5v2.9H28.4z"/>
<path class="st0" d="M31,30.4v-0.4h-3.1v0.4h1.3v2.5h0.5v-2.5H31z"/>
<path class="st0" d="M34.3,30.8c0-0.2,0-0.4-0.1-0.5c-0.1-0.2-0.4-0.3-0.8-0.3h-1.9v2.9h0.5v-1.2h1.3l0.8,1.2h0.5l-0.9-1.3
	c0.2,0,0.4-0.2,0.5-0.3C34.3,31.1,34.3,31,34.3,30.8z M33.9,30.8c0,0.1,0,0.2-0.1,0.2c-0.1,0.1-0.2,0.2-0.4,0.2H32c0,0,0-0.9,0-0.9
	h1.4c0.3,0,0.4,0.1,0.5,0.2C33.9,30.6,33.9,30.7,33.9,30.8z"/>
<path class="st0" d="M35.7,32.1h1.8l0.4,0.7h0.5l-1.5-2.9h-0.5l-1.5,2.9h0.5L35.7,32.1z M37.3,31.7h-1.4l0.6-1.1l0.1-0.3l0.1,0.3
	L37.3,31.7z"/>
<path class="st0" d="M43.1,32.6c0.1-0.1,0.2-0.3,0.2-0.5c0-0.2-0.1-0.4-0.2-0.5c-0.1-0.1-0.3-0.2-0.5-0.2c0.1,0,0.2-0.1,0.3-0.2
	c0.1-0.1,0.2-0.3,0.2-0.5c0-0.2-0.1-0.4-0.2-0.5c-0.1-0.1-0.4-0.2-0.7-0.2h-2v2.9h2.1C42.6,32.8,42.9,32.7,43.1,32.6z M42.5,30.7
	c0,0.1,0,0.2-0.1,0.3c-0.1,0.1-0.2,0.1-0.3,0.1h-1.5v-0.8H42c0.2,0,0.3,0,0.4,0.1C42.5,30.5,42.5,30.6,42.5,30.7z M42.6,32.3
	c-0.1,0.1-0.3,0.2-0.5,0.2h-1.6v-0.9h1.6c0.2,0,0.4,0,0.5,0.1c0.1,0.1,0.1,0.2,0.1,0.3C42.7,32.1,42.7,32.2,42.6,32.3z"/>
<path class="st0" d="M46.6,32.8v-0.4h-2.3v-0.8h2.2v-0.4h-2.2v-0.8h2.2v-0.4h-2.7v2.9H46.6z"/>
<path class="st0" d="M50.2,32c0-0.5-0.3-0.7-1.1-0.8c-0.1,0-0.4,0-0.6-0.1c-0.7-0.1-0.9-0.2-0.9-0.4c0-0.2,0.2-0.4,1-0.4
	c0.6,0,0.9,0.1,1,0.3c0,0.1,0.1,0.1,0.1,0.2h0.5c0-0.1,0-0.2-0.1-0.3c-0.2-0.3-0.6-0.6-1.5-0.6c-1,0-1.4,0.4-1.4,0.8
	c0,0.5,0.3,0.7,1.2,0.8c0.1,0,0.4,0,0.5,0.1c0.7,0.1,0.9,0.2,0.9,0.5c0,0.3-0.2,0.4-1,0.4c-0.6,0-1-0.1-1.1-0.3
	c0-0.1-0.1-0.2-0.1-0.2h-0.5c0,0.1,0,0.3,0.1,0.4c0.2,0.4,0.6,0.6,1.5,0.6C49.8,32.9,50.2,32.5,50.2,32z"/>
<path class="st0" d="M53.5,30.4v-0.4h-3.1v0.4h1.3v2.5h0.5v-2.5H53.5z"/>
<path class="st0" d="M20.8,35.4c0-0.3-0.1-0.5-0.2-0.6c-0.1-0.2-0.4-0.3-0.9-0.3h-1.8v2.9h0.5v-1c0,0,1.3,0,1.4,0
	c0.4,0,0.8-0.1,0.9-0.3C20.8,35.9,20.8,35.7,20.8,35.4z M20.3,35.4c0,0.1,0,0.3-0.1,0.3c-0.1,0.1-0.3,0.2-0.6,0.2c0,0-1.3,0-1.3,0
	v-1.1h1.3c0.3,0,0.5,0.1,0.6,0.2C20.3,35.1,20.3,35.2,20.3,35.4z"/>
<path class="st0" d="M24.2,37.3v-0.4h-2.3v-0.8h2.2v-0.4h-2.2v-0.8h2.2v-0.4h-2.7v2.9H24.2z"/>
<path class="st0" d="M27.7,35.2c0-0.2,0-0.4-0.1-0.5c-0.1-0.2-0.4-0.3-0.8-0.3h-1.9v2.9h0.5v-1.2h1.3l0.8,1.2H28L27.1,36
	c0.2,0,0.4-0.2,0.5-0.3C27.7,35.6,27.7,35.4,27.7,35.2z M27.3,35.3c0,0.1,0,0.2-0.1,0.2c-0.1,0.1-0.2,0.2-0.4,0.2h-1.5
	c0,0,0-0.9,0-0.9h1.4c0.3,0,0.4,0.1,0.5,0.2C27.2,35.1,27.3,35.2,27.3,35.3z"/>
<path class="st0" d="M31.2,34.8v-0.4h-2.6v2.9H29v-1.2h2v-0.4h-2v-0.8H31.2z"/>
<path class="st0" d="M33.3,34.3c-0.6,0-1,0.2-1.4,0.5c-0.3,0.2-0.4,0.6-0.4,1c0,0.5,0.1,0.8,0.4,1.1c0.3,0.3,0.7,0.4,1.3,0.4
	c0.6,0,1.1-0.1,1.3-0.4c0.2-0.2,0.4-0.6,0.4-1.1c0-0.5-0.1-0.8-0.4-1C34.3,34.5,33.9,34.3,33.3,34.3z M33.3,36.9
	c-0.4,0-0.7-0.1-0.9-0.3c-0.2-0.2-0.3-0.5-0.3-0.8c0-0.3,0.1-0.6,0.3-0.8c0.2-0.2,0.5-0.3,1-0.3c0.5,0,0.8,0.1,1,0.3
	c0.2,0.2,0.3,0.5,0.3,0.8c0,0.3-0.1,0.6-0.3,0.8C34,36.8,33.7,36.9,33.3,36.9z"/>
<path class="st0" d="M38.5,35.2c0-0.2,0-0.4-0.1-0.5c-0.1-0.2-0.4-0.3-0.8-0.3h-1.9v2.9h0.5v-1.2h1.3l0.8,1.2h0.5L37.9,36
	c0.2,0,0.4-0.2,0.5-0.3C38.4,35.6,38.5,35.4,38.5,35.2z M38,35.3c0,0.1,0,0.2-0.1,0.2c-0.1,0.1-0.2,0.2-0.4,0.2h-1.5
	c0,0,0-0.9,0-0.9h1.4c0.3,0,0.4,0.1,0.5,0.2C38,35.1,38,35.2,38,35.3z"/>
<path class="st0" d="M42.9,37.3v-2.9h-0.6l-1.2,2.4l-1.2-2.4h-0.6v2.9h0.4v-2.2l1.1,2.2h0.5l1.1-2.2v2.2H42.9z"/>
<path class="st0" d="M44.2,36.6H46l0.4,0.7h0.5l-1.5-2.9h-0.5l-1.5,2.9h0.5L44.2,36.6z M45.8,36.2h-1.4l0.6-1.1l0.1-0.3l0.1,0.3
	L45.8,36.2z"/>
<path class="st0" d="M50.2,37.3v-2.9h-0.4v2.3l-1.9-2.3h-0.5v2.9h0.4V35l1.9,2.3H50.2z"/>
<path class="st0" d="M54.2,36.2h-0.5c0,0.1-0.1,0.3-0.2,0.4c-0.2,0.2-0.5,0.3-1,0.3c-0.4,0-0.9-0.1-1.1-0.4
	c-0.1-0.1-0.2-0.3-0.2-0.7c0-0.3,0-0.5,0.2-0.6c0.2-0.3,0.6-0.4,1.1-0.4c0.5,0,0.8,0.1,1,0.3c0.1,0.1,0.2,0.2,0.2,0.4h0.5
	c0-0.2-0.1-0.4-0.2-0.5c-0.2-0.4-0.7-0.6-1.5-0.6c-0.8,0-1.2,0.2-1.5,0.6c-0.2,0.2-0.2,0.5-0.2,0.9c0,0.4,0.1,0.7,0.3,1
	c0.3,0.3,0.7,0.6,1.5,0.6c0.8,0,1.2-0.2,1.4-0.6C54.2,36.6,54.2,36.4,54.2,36.2z"/>
<path class="st0" d="M57.6,37.3v-0.4h-2.3v-0.8h2.2v-0.4h-2.2v-0.8h2.2v-0.4h-2.7v2.9H57.6z"/>
<path class="st0" d="M23.6,40.2l0.6,1.7H26L24.5,43l0.6,1.7l-1.5-1.1l-1.5,1.1l0.6-1.7l-1.5-1.1h1.8L23.6,40.2z"/>
<path class="st0" d="M30,40.2l0.6,1.7h1.8L30.9,43l0.6,1.7L30,43.6l-1.5,1.1l0.6-1.7l-1.5-1.1h1.8L30,40.2z"/>
<path class="st0" d="M36.4,40.2l0.6,1.7h1.8L37.3,43l0.6,1.7l-1.5-1.1l-1.5,1.1l0.6-1.7L34,41.9h1.8L36.4,40.2z"/>
<path class="st0" d="M42.7,40.2l0.6,1.7h1.8L43.7,43l0.6,1.7l-1.5-1.1l-1.5,1.1l0.6-1.7l-1.5-1.1h1.8L42.7,40.2z"/>
<path class="st0" d="M49.1,40.2l0.6,1.7h1.8L50,43l0.6,1.7l-1.5-1.1l-1.5,1.1l0.6-1.7l-1.5-1.1h1.8L49.1,40.2z"/>
<path class="st0" d="M26.7,11.4l0.4,1.3h1.4l-1.1,0.8l0.4,1.3L26.7,14l-1.1,0.8l0.4-1.3l-1.1-0.8h1.4L26.7,11.4z"/>
<path class="st0" d="M31.6,11.4l0.4,1.3h1.4l-1.1,0.8l0.4,1.3L31.6,14l-1.1,0.8l0.4-1.3l-1.1-0.8h1.4L31.6,11.4z"/>
<path class="st0" d="M36.4,11.4l0.4,1.3h1.4l-1.1,0.8l0.4,1.3L36.4,14l-1.1,0.8l0.4-1.3l-1.1-0.8H36L36.4,11.4z"/>
<path class="st0" d="M41.2,11.4l0.4,1.3H43l-1.1,0.8l0.4,1.3L41.2,14l-1.1,0.8l0.4-1.3l-1.1-0.8h1.4L41.2,11.4z"/>
<path class="st0" d="M46,11.4l0.4,1.3h1.4l-1.1,0.8l0.4,1.3L46,14l-1.1,0.8l0.4-1.3l-1.1-0.8h1.4L46,11.4z"/>
<path class="st1" d="M7.4,34.6C5.5,23,10.9,11.6,21.8,6.6l0.1,0.2C11.1,11.7,5.8,23.1,7.6,34.6c2,12.7,12.3,20.3,24.9,20.7l0,0.2
	C19.8,55.2,9.4,47.5,7.4,34.6z"/>
<path class="st0" d="M19.4,9.6c-2,0-4.3,1.2-5.7,2.8c1.1,1,2.9,0.6,4.2,0.4c1.8-0.3,3.8-0.9,5.5-1.7C22.7,9.6,20.7,9.6,19.4,9.6z"/>
<path class="st0" d="M17.8,7.1c-1.2,1.8-2.6,3.7-4.1,5.3c-1.3-1.2-0.5-3.2,0-4.5c1-2.3,3.2-4.2,5.6-5.2C20,4.2,18.6,6,17.8,7.1z"/>
<path class="st0" d="M13.6,14.8c-1.9,0.7-3.5,2.5-4.3,4.4c1.3,0.6,2.9-0.3,4-0.9c1.5-0.8,3.1-2,4.3-3.3
	C16.6,13.9,14.9,14.3,13.6,14.8z"/>
<path class="st0" d="M11.3,12.9c-0.4,2.1-1.1,4.3-2,6.3c-1.6-0.7-1.5-2.9-1.4-4.2C8,12.7,9.3,10,11.1,8.4
	C12.2,9.5,11.6,11.6,11.3,12.9z"/>
<path class="st0" d="M10,21.5C8.5,22.7,7.5,25,7.3,27c1.5,0.2,2.7-1.2,3.5-2.1c1.2-1.3,2.3-2.8,3-4.5C12.5,19.7,11,20.7,10,21.5z"/>
<path class="st0" d="M7.3,20.4c0.3,2.1,0.3,4.4,0,6.6c-1.7-0.2-2.3-2.3-2.6-3.6c-0.6-2.2-0.2-5.1,0.9-7.3C7,16.9,7.1,19.1,7.3,20.4z
	"/>
<path class="st0" d="M8.8,28.8c-1.2,1.8-1.7,4.6-1.1,6.9c1.6-0.4,2.4-2.2,3.1-3.5c0.9-1.7,1.6-3.8,1.9-5.7
	C10.9,26,9.6,27.6,8.8,28.8z"/>
<path class="st0" d="M5.5,28.6c1,2.2,1.7,4.7,2.2,7.1c-1.9,0.4-3.2-1.6-4-2.9c-1.4-2.3-1.8-5.5-1.3-8.3C4.1,24.8,5,27.2,5.5,28.6z"
	/>
<path class="st0" d="M9.7,36.6c-0.7,2.2-0.2,5.2,1.1,7.2c1.5-1,1.7-3.1,1.9-4.6c0.3-2,0.4-4.2,0.1-6.3C10.9,33.2,10.1,35.2,9.7,36.6
	z"/>
<path class="st0" d="M6.4,37.6c1.7,1.9,3.2,4.1,4.4,6.3c-1.7,1.1-3.7-0.4-4.9-1.4c-2.2-1.8-3.6-4.9-3.9-7.9
	C3.8,34.3,5.4,36.4,6.4,37.6z"/>
<path class="st0" d="M13.1,44.1c0.1,2.6,1.8,5.2,4,6.8c1.1-1.5,0.4-3.7,0-5.3c-0.5-2.1-1.2-4.3-2.2-6.3C13.2,40.3,13,42.4,13.1,44.1
	z"/>
<path class="st0" d="M10.2,46.3c2.4,1.3,4.8,2.9,7,4.6c-1.3,1.8-4,1.1-5.6,0.5c-2.9-1-5.5-3.6-6.9-6.5C6.4,43.9,8.7,45.5,10.2,46.3z
	"/>
<path class="st0" d="M20,50.3c1.4,2.6,4.7,4.3,7.8,4.8c0.3-1.9-1.7-3.8-2.9-5c-1.6-1.8-3.3-3.6-5.1-5.1C18.4,46.6,19.1,48.8,20,50.3
	z"/>
<path class="st0" d="M17.9,53.7c3.3,0.3,6.6,0.8,9.9,1.4c-0.3,2.4-4.1,2.8-5.9,2.9c-3.6,0.3-7.5-1.1-10.3-3.5
	C13,52.8,16.2,53.5,17.9,53.7z"/>
<path class="st0" d="M24.2,4.6c-2.2,0.6-4.8,1.8-6,4c2.3-0.3,4.6-1.1,6.8-1.7c2.5-0.7,5.1-1.2,7.5-2.2C29.8,3.7,26.7,3.9,24.2,4.6z"
	/>
<path class="st1" d="M66.7,34.6c1.8-11.5-3.5-22.9-14.2-27.7l0.1-0.2C63.4,11.6,68.8,23,67,34.6c-2.1,12.8-12.4,20.5-25.1,20.9
	l0-0.2C54.4,54.9,64.7,47.3,66.7,34.6z"/>
<path class="st0" d="M54.9,9.6c2,0,4.3,1.2,5.7,2.8c-1.1,1-2.9,0.6-4.2,0.4c-1.8-0.3-3.8-0.9-5.5-1.7C51.7,9.6,53.6,9.6,54.9,9.6z"
	/>
<path class="st0" d="M56.5,7.1c1.2,1.8,2.6,3.7,4.1,5.3c1.3-1.2,0.5-3.2,0-4.5c-1-2.3-3.2-4.2-5.6-5.2C54.4,4.2,55.8,6,56.5,7.1z"/>
<path class="st0" d="M60.7,14.8c1.9,0.7,3.5,2.5,4.3,4.4c-1.3,0.6-2.9-0.3-4-0.9c-1.5-0.8-3.1-2-4.3-3.3
	C57.8,13.9,59.5,14.3,60.7,14.8z"/>
<path class="st0" d="M63,12.9c0.4,2.1,1.1,4.3,2,6.3c1.6-0.7,1.5-2.9,1.4-4.2c-0.1-2.3-1.4-4.9-3.2-6.6C62.1,9.5,62.7,11.6,63,12.9z
	"/>
<path class="st0" d="M64.3,21.5c1.6,1.2,2.5,3.5,2.7,5.6c-1.5,0.2-2.7-1.2-3.5-2.1c-1.2-1.3-2.3-2.8-3-4.5
	C61.9,19.7,63.3,20.7,64.3,21.5z"/>
<path class="st0" d="M67,20.4c-0.3,2.1-0.3,4.4,0,6.6c1.7-0.2,2.3-2.3,2.6-3.6c0.6-2.2,0.2-5.1-0.9-7.3C67.3,16.9,67.2,19.1,67,20.4
	z"/>
<path class="st0" d="M65.6,28.8c1.2,1.8,1.7,4.6,1.1,6.9c-1.6-0.4-2.4-2.2-3.1-3.5c-0.9-1.7-1.6-3.8-1.9-5.7
	C63.5,26,64.7,27.6,65.6,28.8z"/>
<path class="st0" d="M68.8,28.6c-1,2.2-1.7,4.7-2.2,7.1c1.9,0.4,3.2-1.6,4-2.9c1.4-2.3,1.8-5.5,1.3-8.3
	C70.2,24.8,69.4,27.2,68.8,28.6z"/>
<path class="st0" d="M64.7,36.6c0.7,2.2,0.2,5.2-1.1,7.2c-1.5-1-1.7-3.1-1.9-4.6c-0.3-2-0.4-4.2-0.1-6.3
	C63.5,33.2,64.2,35.2,64.7,36.6z"/>
<path class="st0" d="M68,37.6c-1.7,1.9-3.2,4.1-4.4,6.3c1.7,1.1,3.7-0.4,4.9-1.4c2.2-1.8,3.6-4.9,3.9-7.9C70.5,34.3,69,36.4,68,37.6
	z"/>
<path class="st0" d="M61.2,44.1c-0.1,2.6-1.8,5.2-4,6.8c-1.1-1.5-0.4-3.7,0-5.3c0.5-2.1,1.2-4.3,2.2-6.3
	C61.1,40.3,61.3,42.4,61.2,44.1z"/>
<path class="st0" d="M64.2,46.3c-2.4,1.3-4.8,2.9-7,4.6c1.3,1.8,4,1.1,5.6,0.5c2.9-1,5.5-3.6,6.9-6.5C68,43.9,65.6,45.5,64.2,46.3z"
	/>
<path class="st0" d="M54.4,50.3c-1.4,2.6-4.7,4.3-7.8,4.8c-0.3-1.9,1.7-3.8,2.9-5c1.6-1.8,3.3-3.6,5.1-5.1
	C56,46.6,55.2,48.8,54.4,50.3z"/>
<path class="st0" d="M56.4,53.7c-3.3,0.3-6.6,0.8-9.9,1.4c0.3,2.4,4.1,2.8,5.9,2.9c3.6,0.3,7.5-1.1,10.3-3.5
	C61.3,52.8,58.2,53.5,56.4,53.7z"/>
<path class="st0" d="M50.1,4.6c2.2,0.6,4.8,1.8,6,4c-2.3-0.3-4.6-1.1-6.8-1.7c-2.5-0.7-5.1-1.2-7.5-2.2C44.5,3.7,47.6,3.9,50.1,4.6z
	"/>
<path class="st0" d="M38.6,3.5L37.5,1l-1.1,2.4l-2.6-1.6l1.7,3.5h4.1l1.6-3.5L38.6,3.5z"/>
<path class="st0" d="M39.5,5.9h-4.1v0.6h4.1V5.9z"/>
<path class="st0" d="M37.8,52.9l0.7,2h2.1l-1.7,1.3l0.7,2L37.8,57L36,58.2l0.7-2L35,54.9h2.1L37.8,52.9z"/>
</svg>
